PathFileType	4	(X/Y/Z)	D:\Long Term Storage\D'Arcy Smith\Coord6.trc
DataRate	CameraRate	NumFrames	NumMarkers	Units	OrigDataRate	OrigDataStartFrame	OrigNumFrames
120.00	120.00	      73	4	mm	120.00	4256	      4863
Frame#	Time	M1			M2			M3			M4			
		X1	Y1	Z1	X2	Y2	Z2	X3	Y3	Z3	X4	Y4	Z4	

4256	35.458	1067.03674	340.54233	338.64285	1653.43115	301.65652	499.59354							
4257	35.467	1064.57910	334.71463	349.00311	1651.62939	301.31540	514.92224							
4258	35.475	1061.63269	329.19705	360.42706	1649.81604	300.90701	529.22186							
4259	35.483	1058.82849	323.91367	372.72043	1648.06091	301.56491	543.57703							
4260	35.492	1056.92114	319.24176	385.45218	1645.85498	302.56512	557.40009							
4261	35.500	1054.43591	314.17874	398.87665	1643.80286	304.94788	571.40796							
4262	35.508	1052.47876	310.28632	412.80563	1641.75366	306.35345	584.43176							
4263	35.517	1050.17737	306.85294	427.39816	1640.09619	309.34534	597.34296							
4264	35.525	1048.25439	304.06274	442.07831	1638.56604	311.94861	609.83167							
4265	35.533	1046.05542	302.08307	456.79434	1636.83301	314.70105	621.60425							
4266	35.542	1044.41333	300.38364	472.01694	1635.31970	317.59616	633.04004							
4267	35.550	1042.89368	299.32190	487.36420	1633.51636	320.87799	643.83325							
4268	35.558	1041.39880	298.72507	502.84326	1631.83276	324.27811	653.80878							
4269	35.567	1039.71765	298.92169	518.19855	1629.97620	328.04041	663.03143							
4270	35.575	1038.26587	299.74121	533.52393	1627.58606	331.85806	671.44482							
4271	35.583	1037.00891	300.77161	549.35138	1625.78918	335.90802	678.84180							
4272	35.592	1035.71985	303.45068	564.51276	1624.01257	339.86810	685.36035							
4273	35.600	1034.08350	306.03259	579.18634	1622.49219	343.43011	690.69122							
4274	35.608	1032.90515	310.20041	593.52679	1621.34863	346.67224	695.55957							
4275	35.617	1031.53943	314.48758	607.19879	1620.08154	349.80194	699.10370							
4276	35.625	1029.32422	319.72495	620.33502	1619.25037	352.70758	701.77173							
4277	35.633	1028.59875	325.66406	633.30646	1618.80627	354.68671	703.47302							
4278	35.642	1027.52600	331.50650	645.19214	1618.38611	356.01080	704.18311							
4279	35.650	1026.24658	337.63330	656.14838	1618.05078	356.84940	704.11359							
4280	35.658	1025.05347	343.88535	666.53369	1617.99048	356.72253	703.20892							
4281	35.667	1023.98511	350.33099	676.07855	1618.11462	355.86392	701.32214							
4282	35.675	1022.79169	356.63773	685.10077	1618.39014	354.43970	698.77417							
4283	35.683	1021.89294	362.86615	692.92188	1618.36475	352.65775	695.43060							
4284	35.692	1020.73401	368.86325	700.22437	1618.65747	350.24371	691.31982							
4285	35.700	1019.82111	374.70761	706.65472	1618.91541	347.59335	686.20068							
4286	35.708	1018.86835	379.77002	712.26422	1619.41931	344.76440	680.38214							
4287	35.717	1017.75549	384.53082	717.31329	1619.38452	342.08926	673.43915							
4288	35.725	1016.88617	388.79715	721.10046	1619.88672	338.84082	665.60602							
4289	35.733	1015.91821	392.55392	724.68719	1620.24084	335.48798	656.99359							
4290	35.742	1014.97949	395.62003	727.13690	1621.17297	332.29187	647.09991							
4291	35.750	1014.11951	398.08875	728.68622	1620.71606	328.61755	636.45752							
4292	35.758	1013.39795	399.98889	729.25159	1620.99976	325.26984	624.73425							
4293	35.767	1012.95581	400.87018	729.09814	1621.15039	321.99036	612.04633							
4294	35.775	1012.59283	400.89316	728.03076	1620.97791	318.90134	598.38055							
4295	35.783	1012.40820	400.19391	726.00183	1621.01147	316.23560	583.86548							
4296	35.792	1012.45239	398.65384	723.07202	1620.67834	313.15472	568.57458							
4297	35.800	1012.57947	396.55884	719.34760	1620.44165	311.09888	552.26416							
4298	35.808	1012.99658	393.84100	714.74396	1620.24878	310.10516	536.46136							
4299	35.817	1013.48645	390.27020	709.34106	1619.99512	309.27319	519.61798							
4300	35.825	1014.27338	386.47760	702.98486	1619.50146	309.07394	502.98480							
4301	35.833	1015.18005	382.21194	695.82739	1619.84827	308.71457	485.10147							
4302	35.842	1016.53351	377.55713	687.92126	1619.88062	310.22754	468.34198							
4303	35.850	1017.83258	372.76385	679.25049	1618.76428	311.14511	450.94342							
4304	35.858	1019.96094	367.79523	669.99921	1618.13904	313.58499	434.68539							
4305	35.867	1022.44220	363.01688	660.04913	1617.62207	317.61011	418.16690							
4306	35.875	1025.15161	357.38730	649.01727	1617.31250	322.33777	403.64575							
4307	35.883	1027.90015	353.60138	637.94861	1615.98975	327.32260	388.13397							
4308	35.892	1031.54285	347.77881	625.83746	1615.16809	332.53995	373.01111							
4309	35.900	1035.46399	344.04321	613.46252	1614.18298	338.67004	359.73334							
4310	35.908	1039.58130	339.62732	599.95001	1613.43982	344.81848	345.71906							
4311	35.917	1044.03943	335.86340	585.87579	1612.56909	351.22894	333.85767							
4312	35.925	1049.22266	332.39139	571.25171	1612.21777	358.42337	323.15128							
4313	35.933	1054.22729	329.08636	555.82007	1611.75696	365.34616	313.06223							
4314	35.942	1059.56335	326.88391	539.91589	1611.55029	372.16855	303.60916							
4315	35.950	1065.18701	324.86960	523.44019	1611.35034	378.99783	295.43063							
4316	35.958	1070.52014	323.99466	506.12772	1611.47913	385.48312	288.08951							
4317	35.967	1076.45618	323.23529	489.13367	1611.84583	391.67383	281.61139							
4318	35.975	1082.39600	323.46695	472.01230	1612.31323	397.64520	275.95044							
4319	35.983	1088.36438	324.04846	455.00690	1613.17529	403.03745	271.19305							
4320	35.992	1094.60205	325.39850	438.35931	1614.55554	407.76587	267.43939							
4321	36.000	1100.56702	327.66165	421.53210	1615.33643	412.01907	263.06631							
4322	36.008	1106.29395	330.68182	405.22739	1617.27136	415.77426	261.46933							
4323	36.017	1111.83240	334.57703	389.35825	1619.05957	418.74719	259.71542							
4324	36.025	1117.21375	338.57965	374.09216	1621.00732	421.19028	258.98398							
4325	36.033	1122.28186	343.19067	359.47272	1622.59009	423.30676	258.37637							
4326	36.042	1127.38977	347.62067	345.80490	1625.12622	424.25171	258.86334							
4327	36.050	1131.55994	352.90735	333.08417	1627.28625	424.94412	259.45126							
4328	36.058	1135.09399	358.38766	321.69760	1629.27429	425.25449	260.49966							
